<svg width="10" height="10" viewBox="0 0 10 10" fill="none" xmlns="http://www.w3.org/2000/svg">
<path d="M3 4.63636C3 4.17045 3.11364 3.74574 3.34091 3.36222C3.56818 2.97869 3.87358 2.6733 4.2571 2.44602C4.64063 2.21875 5.06534 2.10511 5.53125 2.10511C5.93466 2.10511 6.30682 2.19176 6.64773 2.36506C6.99148 2.53835 7.27557 2.77557 7.5 3.0767C7.72443 3.375 7.86364 3.71307 7.91761 4.09091H6.88636C6.82955 3.7983 6.67188 3.55966 6.41335 3.375C6.15483 3.1875 5.8608 3.09375 5.53125 3.09375C5.24716 3.09375 4.98864 3.16335 4.75568 3.30256C4.52273 3.44176 4.33665 3.62784 4.19744 3.8608C4.05824 4.09375 3.98864 4.35227 3.98864 4.63636C3.98864 4.92045 4.05824 5.17898 4.19744 5.41193C4.33665 5.64489 4.52273 5.83097 4.75568 5.97017C4.98864 6.10937 5.24716 6.17898 5.53125 6.17898C5.8608 6.17898 6.1392 6.08665 6.36648 5.90199C6.59659 5.71449 6.74148 5.47443 6.80114 5.18182H7.83239C7.77841 5.55966 7.64631 5.89915 7.43608 6.20028C7.22585 6.49858 6.95597 6.73437 6.62642 6.90767C6.29972 7.08097 5.93466 7.16761 5.53125 7.16761C5.06534 7.16761 4.64063 7.05398 4.2571 6.8267C3.87358 6.59943 3.56818 6.29403 3.34091 5.91051C3.11364 5.52699 3 5.10227 3 4.63636ZM5.48864 9.13636C4.86932 9.13636 4.28693 9.01989 3.74148 8.78693C3.19886 8.55398 2.72017 8.23153 2.3054 7.8196C1.89347 7.40483 1.5696 6.92614 1.33381 6.38352C1.10085 5.84091 0.985795 5.25852 0.988636 4.63636C0.991477 4.0142 1.10938 3.43182 1.34233 2.8892C1.57813 2.34659 1.90199 1.86932 2.31392 1.45739C2.72585 1.04261 3.20313 0.71875 3.74574 0.485795C4.28835 0.252841 4.86932 0.136364 5.48864 0.136364C6.1108 0.136364 6.69318 0.252841 7.2358 0.485795C7.78125 0.71875 8.25852 1.04261 8.66761 1.45739C9.07955 1.86932 9.40199 2.34659 9.63494 2.8892C9.8679 3.43182 9.9858 4.0142 9.98864 4.63636C9.99148 5.25852 9.87642 5.84091 9.64347 6.38352C9.41051 6.92614 9.08807 7.40483 8.67614 7.8196C8.2642 8.23153 7.78551 8.55398 7.24006 8.78693C6.6946 9.01989 6.1108 9.13636 5.48864 9.13636ZM5.48864 8.14773C5.97443 8.14773 6.4304 8.05682 6.85653 7.875C7.28267 7.69318 7.65625 7.44176 7.97727 7.12074C8.2983 6.79972 8.54972 6.42756 8.73153 6.00426C8.91335 5.57812 9.00284 5.12358 9 4.64062C8.99716 4.15483 8.90483 3.69886 8.72301 3.27273C8.54119 2.84659 8.28977 2.47301 7.96875 2.15199C7.64773 1.83097 7.27557 1.57955 6.85227 1.39773C6.42898 1.21591 5.97443 1.125 5.48864 1.125C5.00568 1.125 4.55256 1.21591 4.12926 1.39773C3.70597 1.57955 3.33381 1.83239 3.01278 2.15625C2.69176 2.47727 2.43892 2.85085 2.25426 3.27699C2.07244 3.70028 1.98011 4.15483 1.97727 4.64062C1.97443 5.12074 2.06392 5.57386 2.24574 6C2.42756 6.4233 2.67898 6.79545 3 7.11648C3.32386 7.4375 3.69744 7.69034 4.12074 7.875C4.54688 8.05682 5.00284 8.14773 5.48864 8.14773Z" fill="#969595"/>
</svg>
