<svg width="14" height="17" viewBox="0 0 14 17" fill="none" xmlns="http://www.w3.org/2000/svg">
<path fill-rule="evenodd" clip-rule="evenodd" d="M3.51788 5.22555C3.69128 7.05458 5.06161 8.77274 6.99933 8.77274C7.27548 8.77274 7.49933 8.99659 7.49933 9.27274C7.49933 9.54888 7.27548 9.77274 6.99933 9.77274C4.39007 9.77274 2.72816 7.49089 2.52235 5.31993C2.41769 4.21594 2.67578 3.07249 3.42129 2.19829C4.17453 1.31504 5.3687 0.772736 6.99999 0.772736C7.27614 0.772736 7.49999 0.996593 7.49999 1.27274C7.49999 1.54888 7.27614 1.77274 6.99999 1.77274C5.59871 1.77274 4.70814 2.23043 4.18218 2.84718C3.6485 3.47298 3.43294 4.32953 3.51788 5.22555Z" fill="white"/>
<path fill-rule="evenodd" clip-rule="evenodd" d="M13.0894 16.5959C12.8178 16.6453 12.5575 16.4651 12.5081 16.1934C12.0202 13.5102 11.0875 11.8147 10.017 10.8505C8.95834 9.89711 7.72713 9.62271 6.52897 9.84564C4.09192 10.2991 1.73455 12.8383 1.49873 16.1397C1.47906 16.4152 1.23982 16.6225 0.964381 16.6028C0.68894 16.5831 0.481601 16.3439 0.501275 16.0685C0.76546 12.3699 3.40809 9.40915 6.34604 8.86251C7.83538 8.5854 9.38542 8.93596 10.6862 10.1075C11.975 11.2682 12.9798 13.1977 13.4919 16.0145C13.5413 16.2862 13.3611 16.5465 13.0894 16.5959Z" fill="white"/>
<path fill-rule="evenodd" clip-rule="evenodd" d="M10.4821 5.31993C10.3087 3.49089 8.93839 1.77274 7.00067 1.77274C6.72452 1.77274 6.50067 1.54888 6.50067 1.27274C6.50067 0.996593 6.72452 0.772736 7.00067 0.772736C9.60993 0.772736 11.2718 3.05458 11.4777 5.22555C11.5823 6.32953 11.3242 7.47298 10.5787 8.34718C9.82547 9.23043 8.6313 9.77274 7.00001 9.77274C6.72386 9.77274 6.50001 9.54888 6.50001 9.27274C6.50001 8.99659 6.72386 8.77274 7.00001 8.77274C8.40129 8.77274 9.29186 8.31504 9.81782 7.69829C10.3515 7.07249 10.5671 6.21594 10.4821 5.31993Z" fill="white"/>
</svg>
