<svg width="33" height="34" viewBox="0 0 33 34" fill="none" xmlns="http://www.w3.org/2000/svg">
<path d="M28.0574 5.5289C24.971 2.49504 20.8607 0.826416 16.4926 0.826416C7.47656 0.826416 0.139955 8.021 0.139955 16.8625C0.139955 19.6869 0.891295 22.4463 2.32031 24.8806L0 33.1876L8.66987 30.9555C11.0565 32.2341 13.7451 32.9059 16.4853 32.9059H16.4926C25.5013 32.9059 33 25.7113 33 16.8698C33 12.5862 31.1438 8.56276 28.0574 5.5289ZM16.4926 30.2043C14.0471 30.2043 11.6531 29.5614 9.56853 28.3479L9.075 28.0589L3.93348 29.3808L5.30357 24.4616L4.97946 23.956C3.61674 21.8323 2.90223 19.3835 2.90223 16.8625C2.90223 9.51626 9.00134 3.53522 16.5 3.53522C20.1315 3.53522 23.542 4.92213 26.1054 7.44312C28.6688 9.96412 30.2451 13.3086 30.2377 16.8698C30.2377 24.2233 23.9839 30.2043 16.4926 30.2043ZM23.9471 20.2215C23.542 20.0192 21.531 19.0513 21.1554 18.9212C20.7797 18.784 20.5071 18.719 20.2346 19.1235C19.9621 19.528 19.1813 20.4237 18.9382 20.6982C18.7025 20.9655 18.4594 21.0016 18.0542 20.7993C15.6529 19.6219 14.0766 18.6973 12.4929 16.0318C12.073 15.3239 12.9127 15.3745 13.6935 13.8431C13.8261 13.5759 13.7598 13.3447 13.6567 13.1424C13.5536 12.9402 12.7359 10.9682 12.3971 10.1664C12.0656 9.38624 11.7268 9.49459 11.4763 9.48014C11.2406 9.4657 10.9681 9.4657 10.6955 9.4657C10.423 9.4657 9.98103 9.56682 9.60536 9.96412C9.22969 10.3686 8.17634 11.3366 8.17634 13.3086C8.17634 15.2806 9.64219 17.1876 9.84107 17.4549C10.0473 17.7221 12.7212 21.7673 16.8241 23.5081C19.417 24.6061 20.4335 24.7 21.7299 24.5122C22.5181 24.3966 24.146 23.5443 24.4848 22.6052C24.8237 21.6662 24.8237 20.8643 24.7205 20.6982C24.6248 20.5176 24.3522 20.4165 23.9471 20.2215Z" fill="white"/>
</svg>
