<svg width="33" height="34" viewBox="0 0 33 34" fill="none" xmlns="http://www.w3.org/2000/svg">
<path d="M16.5037 8.71001C11.8215 8.71001 8.04479 12.4144 8.04479 17.007C8.04479 21.5996 11.8215 25.304 16.5037 25.304C21.1859 25.304 24.9626 21.5996 24.9626 17.007C24.9626 12.4144 21.1859 8.71001 16.5037 8.71001ZM16.5037 22.4011C13.4779 22.4011 11.0043 19.9821 11.0043 17.007C11.0043 14.0319 13.4706 11.6129 16.5037 11.6129C19.5368 11.6129 22.0031 14.0319 22.0031 17.007C22.0031 19.9821 19.5294 22.4011 16.5037 22.4011ZM27.2816 8.37062C27.2816 9.44656 26.3982 10.3059 25.3086 10.3059C24.2117 10.3059 23.3356 9.43934 23.3356 8.37062C23.3356 7.3019 24.219 6.43537 25.3086 6.43537C26.3982 6.43537 27.2816 7.3019 27.2816 8.37062ZM32.8841 10.3347C32.7589 7.74239 32.1552 5.44609 30.219 3.55417C28.2902 1.66225 25.9491 1.07013 23.3061 0.940148C20.5822 0.788505 12.4178 0.788505 9.69387 0.940148C7.05828 1.06291 4.71718 1.65503 2.78098 3.54695C0.844785 5.43887 0.248466 7.73517 0.115951 10.3275C-0.0386503 12.9993 -0.0386503 21.0075 0.115951 23.6793C0.241104 26.2716 0.844785 28.5679 2.78098 30.4598C4.71718 32.3518 7.05092 32.9439 9.69387 33.0739C12.4178 33.2255 20.5822 33.2255 23.3061 33.0739C25.9491 32.9511 28.2902 32.359 30.219 30.4598C32.1479 28.5679 32.7515 26.2716 32.8841 23.6793C33.0387 21.0075 33.0387 13.0065 32.8841 10.3347ZM29.365 26.546C28.7908 27.9614 27.6791 29.0517 26.2288 29.6222C24.0571 30.4671 18.9037 30.2721 16.5037 30.2721C14.1037 30.2721 8.94294 30.4598 6.77853 29.6222C5.33558 29.059 4.22393 27.9686 3.64233 26.546C2.78098 24.4158 2.97975 19.3611 2.97975 17.007C2.97975 14.6529 2.78834 9.59098 3.64233 7.46799C4.21656 6.05266 5.32822 4.96228 6.77853 4.39181C8.95031 3.54695 14.1037 3.74192 16.5037 3.74192C18.9037 3.74192 24.0644 3.55417 26.2288 4.39181C27.6718 4.95506 28.7834 6.04544 29.365 7.46799C30.2264 9.5982 30.0276 14.6529 30.0276 17.007C30.0276 19.3611 30.2264 24.423 29.365 26.546Z" fill="white"/>
</svg>
