<svg width="36" height="36" viewBox="0 0 36 36" fill="none" xmlns="http://www.w3.org/2000/svg">
<path fill-rule="evenodd" clip-rule="evenodd" d="M23.3672 34.4298V21.8996H27.4937L28.109 17.0159H23.3672V13.8985C23.3672 12.4862 23.751 11.5227 25.7412 11.5227L28.2774 11.5193V7.15473C27.838 7.09406 26.333 6.95923 24.5806 6.95923C20.9239 6.95923 18.4204 9.2373 18.4204 13.4165V17.0159H14.2807V21.8996H18.4204V34.4298H23.3672Z" stroke="white" stroke-width="2"/>
<path fill-rule="evenodd" clip-rule="evenodd" d="M31.9357 34.4298H3.29154C2.02604 34.4298 1 33.4236 1 32.1826V4.09288C1 2.85188 2.02604 1.8457 3.29154 1.8457H31.9357C33.2012 1.8457 34.2273 2.85188 34.2273 4.09288V32.1826C34.2273 33.4236 33.2012 34.4298 31.9357 34.4298Z" stroke="white" stroke-width="2" stroke-linejoin="round"/>
</svg>
