<svg width="12" height="13" viewBox="0 0 12 13" fill="none" xmlns="http://www.w3.org/2000/svg">
<path d="M7.5 0.300049C7.08516 0.300049 6.75 0.628717 6.75 1.03553C6.75 1.44234 7.08516 1.77101 7.5 1.77101H9.43828L4.72031 6.39995C4.42734 6.68724 4.42734 7.15382 4.72031 7.44111C5.01328 7.72841 5.48906 7.72841 5.78203 7.44111L10.5 2.81218V4.71294C10.5 5.11975 10.8352 5.44842 11.25 5.44842C11.6648 5.44842 12 5.11975 12 4.71294V1.03553C12 0.628717 11.6648 0.300049 11.25 0.300049H7.5ZM1.875 1.03553C0.839062 1.03553 0 1.85835 0 2.87423V10.229C0 11.2449 0.839062 12.0678 1.875 12.0678H9.375C10.4109 12.0678 11.25 11.2449 11.25 10.229V7.65486C11.25 7.24805 10.9148 6.91938 10.5 6.91938C10.0852 6.91938 9.75 7.24805 9.75 7.65486V10.229C9.75 10.4313 9.58125 10.5968 9.375 10.5968H1.875C1.66875 10.5968 1.5 10.4313 1.5 10.229V2.87423C1.5 2.67198 1.66875 2.50649 1.875 2.50649H4.5C4.91484 2.50649 5.25 2.17782 5.25 1.77101C5.25 1.3642 4.91484 1.03553 4.5 1.03553H1.875Z" fill="white"/>
</svg>
